<svg width="24" height="24" viewBox="0 0 24 24" fill="none" xmlns="http://www.w3.org/2000/svg">
<mask id="mask0_3826_5182" style="mask-type:alpha" maskUnits="userSpaceOnUse" x="0" y="0" width="24" height="24">
<rect width="24" height="24" fill="#D9D9D9"/>
</mask>
<g mask="url(#mask0_3826_5182)">
<path d="M7.00075 16.8845C7.25158 16.8845 7.46158 16.7997 7.63075 16.63C7.79992 16.4603 7.8845 16.2501 7.8845 15.9993C7.8845 15.7484 7.79967 15.5384 7.63 15.3693C7.46033 15.2001 7.25008 15.1155 6.99925 15.1155C6.74842 15.1155 6.53842 15.2003 6.36925 15.37C6.20008 15.5397 6.1155 15.7499 6.1155 16.0008C6.1155 16.2516 6.20033 16.4616 6.37 16.6307C6.53967 16.7999 6.74992 16.8845 7.00075 16.8845ZM6.99975 7.25C6.78708 7.25 6.609 7.32192 6.4655 7.46575C6.32183 7.60942 6.25 7.7875 6.25 8V12.6348C6.25 12.8472 6.32192 13.0253 6.46575 13.169C6.60958 13.3128 6.78775 13.3848 7.00025 13.3848C7.21292 13.3848 7.391 13.3128 7.5345 13.169C7.67817 13.0253 7.75 12.8472 7.75 12.6348V8C7.75 7.7875 7.67808 7.60942 7.53425 7.46575C7.39042 7.32192 7.21225 7.25 6.99975 7.25ZM17 16.75C17.2125 16.75 17.3906 16.6781 17.5343 16.5343C17.6781 16.3904 17.75 16.2122 17.75 15.9998C17.75 15.7871 17.6781 15.609 17.5343 15.4655C17.3906 15.3218 17.2125 15.25 17 15.25H12C11.7875 15.25 11.6094 15.3219 11.4658 15.4658C11.3219 15.6096 11.25 15.7878 11.25 16.0003C11.25 16.2129 11.3219 16.391 11.4658 16.5345C11.6094 16.6782 11.7875 16.75 12 16.75H17ZM17 12.75C17.2125 12.75 17.3906 12.6781 17.5343 12.5343C17.6781 12.3904 17.75 12.2122 17.75 11.9998C17.75 11.7871 17.6781 11.609 17.5343 11.4655C17.3906 11.3218 17.2125 11.25 17 11.25H12C11.7875 11.25 11.6094 11.3219 11.4658 11.4658C11.3219 11.6096 11.25 11.7878 11.25 12.0003C11.25 12.2129 11.3219 12.391 11.4658 12.5345C11.6094 12.6782 11.7875 12.75 12 12.75H17ZM17 8.75C17.2125 8.75 17.3906 8.67808 17.5343 8.53425C17.6781 8.39042 17.75 8.21225 17.75 7.99975C17.75 7.78708 17.6781 7.609 17.5343 7.4655C17.3906 7.32183 17.2125 7.25 17 7.25H12C11.7875 7.25 11.6094 7.32192 11.4658 7.46575C11.3219 7.60958 11.25 7.78775 11.25 8.00025C11.25 8.21292 11.3219 8.391 11.4658 8.5345C11.6094 8.67817 11.7875 8.75 12 8.75H17ZM4.30775 20.5C3.80258 20.5 3.375 20.325 3.025 19.975C2.675 19.625 2.5 19.1974 2.5 18.6923V5.30775C2.5 4.80258 2.675 4.375 3.025 4.025C3.375 3.675 3.80258 3.5 4.30775 3.5H19.6923C20.1974 3.5 20.625 3.675 20.975 4.025C21.325 4.375 21.5 4.80258 21.5 5.30775V18.6923C21.5 19.1974 21.325 19.625 20.975 19.975C20.625 20.325 20.1974 20.5 19.6923 20.5H4.30775ZM4.30775 19H19.6923C19.7693 19 19.8398 18.9679 19.9038 18.9038C19.9679 18.8398 20 18.7692 20 18.6923V5.30775C20 5.23075 19.9679 5.16025 19.9038 5.09625C19.8398 5.03208 19.7693 5 19.6923 5H4.30775C4.23075 5 4.16025 5.03208 4.09625 5.09625C4.03208 5.16025 4 5.23075 4 5.30775V18.6923C4 18.7692 4.03208 18.8398 4.09625 18.9038C4.16025 18.9679 4.23075 19 4.30775 19Z" fill="black"/>
</g>
</svg>
