<svg width="24" height="24" viewBox="0 0 24 24" fill="none" xmlns="http://www.w3.org/2000/svg">
<mask id="mask0_3826_5187" style="mask-type:alpha" maskUnits="userSpaceOnUse" x="0" y="0" width="24" height="24">
<rect width="24" height="24" fill="#D9D9D9"/>
</mask>
<g mask="url(#mask0_3826_5187)">
<path d="M12 13.0538L15.073 16.127C15.2115 16.2654 15.3856 16.3362 15.5953 16.3395C15.8048 16.3427 15.982 16.2719 16.127 16.127C16.2718 15.982 16.3443 15.8064 16.3443 15.6C16.3443 15.3937 16.2718 15.218 16.127 15.073L13.0538 12L16.127 8.92705C16.2653 8.78855 16.3362 8.61446 16.3395 8.4048C16.3427 8.1953 16.2718 8.01805 16.127 7.87305C15.982 7.72821 15.8063 7.6558 15.6 7.6558C15.3937 7.6558 15.218 7.72821 15.073 7.87305L12 10.9463L8.927 7.87305C8.7885 7.73471 8.61442 7.66388 8.40475 7.66055C8.19525 7.65738 8.018 7.72821 7.873 7.87305C7.72817 8.01805 7.65575 8.19371 7.65575 8.40005C7.65575 8.60638 7.72817 8.78205 7.873 8.92705L10.9462 12L7.873 15.073C7.73467 15.2115 7.66383 15.3856 7.6605 15.5953C7.65733 15.8048 7.72817 15.982 7.873 16.127C8.018 16.2719 8.19367 16.3443 8.4 16.3443C8.60633 16.3443 8.782 16.2719 8.927 16.127L12 13.0538ZM12.0017 21.5C10.6877 21.5 9.45267 21.2507 8.2965 20.752C7.14033 20.2534 6.13467 19.5766 5.2795 18.7218C4.42433 17.867 3.74725 16.8617 3.24825 15.706C2.74942 14.5504 2.5 13.3156 2.5 12.0018C2.5 10.6878 2.74933 9.45271 3.248 8.29655C3.74667 7.14038 4.42342 6.13471 5.27825 5.27955C6.13308 4.42438 7.13833 3.7473 8.294 3.2483C9.44967 2.74946 10.6844 2.50005 11.9983 2.50005C13.3123 2.50005 14.5473 2.74938 15.7035 3.24805C16.8597 3.74671 17.8653 4.42346 18.7205 5.2783C19.5757 6.13313 20.2528 7.13838 20.7518 8.29405C21.2506 9.44971 21.5 10.6845 21.5 11.9983C21.5 13.3123 21.2507 14.5474 20.752 15.7035C20.2533 16.8597 19.5766 17.8654 18.7218 18.7205C17.8669 19.5757 16.8617 20.2528 15.706 20.7518C14.5503 21.2506 13.3156 21.5 12.0017 21.5Z" fill="black"/>
</g>
</svg>
