<svg width="24" height="24" viewBox="0 0 24 24" fill="none" xmlns="http://www.w3.org/2000/svg">
<mask id="mask0_3826_5191" style="mask-type:alpha" maskUnits="userSpaceOnUse" x="0" y="0" width="24" height="24">
<rect width="24" height="24" fill="#D9D9D9"/>
</mask>
<g mask="url(#mask0_3826_5191)">
<path d="M12.002 15.577C13.1351 15.577 14.0975 15.1804 14.8892 14.3872C15.6809 13.5941 16.0767 12.6309 16.0767 11.4978C16.0767 10.3646 15.6801 9.40217 14.887 8.6105C14.0938 7.81883 13.1306 7.423 11.9975 7.423C10.8643 7.423 9.90188 7.81958 9.11021 8.61275C8.31854 9.40592 7.92271 10.3691 7.92271 11.5023C7.92271 12.6354 8.31929 13.5978 9.11246 14.3895C9.90563 15.1812 10.8688 15.577 12.002 15.577ZM11.9997 14.2C11.2497 14.2 10.6122 13.9375 10.0872 13.4125C9.56221 12.8875 9.29971 12.25 9.29971 11.5C9.29971 10.75 9.56221 10.1125 10.0872 9.5875C10.6122 9.0625 11.2497 8.8 11.9997 8.8C12.7497 8.8 13.3872 9.0625 13.9122 9.5875C14.4372 10.1125 14.6997 10.75 14.6997 11.5C14.6997 12.25 14.4372 12.8875 13.9122 13.4125C13.3872 13.9375 12.7497 14.2 11.9997 14.2ZM11.9997 18.5C9.89454 18.5 7.96921 17.9384 6.22371 16.8152C4.47821 15.6922 3.08496 14.2148 2.04396 12.3828C1.96063 12.2391 1.89971 12.0943 1.86121 11.9485C1.82288 11.8027 1.80371 11.653 1.80371 11.4995C1.80371 11.346 1.82288 11.1965 1.86121 11.051C1.89971 10.9055 1.96063 10.7609 2.04396 10.6172C3.08496 8.78525 4.47821 7.30775 6.22371 6.18475C7.96921 5.06158 9.89454 4.5 11.9997 4.5C14.1049 4.5 16.0302 5.06158 17.7757 6.18475C19.5212 7.30775 20.9145 8.78525 21.9555 10.6172C22.0388 10.7609 22.0997 10.9057 22.1382 11.0515C22.1765 11.1973 22.1957 11.347 22.1957 11.5005C22.1957 11.654 22.1765 11.8035 22.1382 11.949C22.0997 12.0945 22.0388 12.2391 21.9555 12.3828C20.9145 14.2148 19.5212 15.6922 17.7757 16.8152C16.0302 17.9384 14.1049 18.5 11.9997 18.5ZM11.9997 17C13.883 17 15.6122 16.5042 17.1872 15.5125C18.7622 14.5208 19.9664 13.1833 20.7997 11.5C19.9664 9.81667 18.7622 8.47917 17.1872 7.4875C15.6122 6.49583 13.883 6 11.9997 6C10.1164 6 8.38721 6.49583 6.81221 7.4875C5.23721 8.47917 4.03304 9.81667 3.19971 11.5C4.03304 13.1833 5.23721 14.5208 6.81221 15.5125C8.38721 16.5042 10.1164 17 11.9997 17Z" fill="black"/>
</g>
</svg>
