<svg width="24" height="24" viewBox="0 0 24 24" fill="none" xmlns="http://www.w3.org/2000/svg">
<mask id="mask0_3826_5190" style="mask-type:alpha" maskUnits="userSpaceOnUse" x="0" y="0" width="24" height="24">
<rect width="24" height="24" fill="#D9D9D9"/>
</mask>
<g mask="url(#mask0_3826_5190)">
<path d="M14.8766 8.623C15.2829 9.0295 15.597 9.52341 15.8188 10.1047C16.0407 10.6862 16.1246 11.2699 16.0706 11.8557C16.0706 12.0481 16.0014 12.2109 15.8631 12.3442C15.7246 12.4776 15.5592 12.5442 15.3668 12.5442C15.1745 12.5442 15.0117 12.4776 14.8783 12.3442C14.745 12.2109 14.6783 12.0481 14.6783 11.8557C14.7425 11.4161 14.7063 10.9994 14.5698 10.6057C14.4333 10.2122 14.2234 9.87383 13.9401 9.5905C13.6568 9.30716 13.3151 9.09208 12.9151 8.94525C12.5151 8.79841 12.0933 8.76025 11.6496 8.83075C11.4573 8.83725 11.2913 8.77283 11.1516 8.6375C11.0118 8.50233 10.9387 8.33858 10.9323 8.14625C10.9258 7.95391 10.9877 7.78783 11.1178 7.648C11.248 7.50833 11.4093 7.43533 11.6016 7.429C12.1836 7.36233 12.7685 7.43825 13.3563 7.65675C13.9442 7.87541 14.4509 8.1975 14.8766 8.623ZM11.9996 6C11.6444 6 11.296 6.01733 10.9543 6.052C10.6127 6.0865 10.2726 6.1435 9.93409 6.223C9.72125 6.26666 9.52959 6.23625 9.35909 6.13175C9.18859 6.02725 9.07134 5.87691 9.00734 5.68075C8.94317 5.47825 8.96434 5.28566 9.07084 5.103C9.17717 4.92033 9.33159 4.80716 9.53409 4.7635C9.93675 4.66733 10.3435 4.59941 10.7543 4.55975C11.1653 4.51991 11.5804 4.5 11.9996 4.5C14.1483 4.5 16.122 5.05833 17.9208 6.175C19.7195 7.29166 21.1028 8.80258 22.0706 10.7077C22.1373 10.8346 22.1857 10.9624 22.2158 11.0912C22.246 11.2201 22.2611 11.3563 22.2611 11.5C22.2611 11.6437 22.2486 11.7799 22.2236 11.9087C22.1986 12.0376 22.1528 12.1654 22.0861 12.2922C21.7798 12.9332 21.4073 13.531 20.9688 14.0855C20.5303 14.64 20.0476 15.1493 19.5206 15.6135C19.3656 15.752 19.1884 15.8093 18.9891 15.7855C18.7896 15.7618 18.6258 15.6622 18.4976 15.4865C18.3694 15.3108 18.3163 15.1224 18.3381 14.9212C18.3599 14.7199 18.4483 14.55 18.6033 14.4115C19.0547 14.0025 19.4663 13.5554 19.8381 13.0702C20.2099 12.5849 20.5304 12.0615 20.7996 11.5C19.9663 9.81666 18.7621 8.47916 17.1871 7.4875C15.6121 6.49583 13.8829 6 11.9996 6ZM11.9996 18.5C9.89442 18.5 7.96492 17.9375 6.21109 16.8125C4.45725 15.6875 3.06309 14.2057 2.02859 12.3672C1.94525 12.2404 1.88434 12.1026 1.84584 11.9537C1.80734 11.8051 1.78809 11.6538 1.78809 11.5C1.78809 11.3462 1.80475 11.1974 1.83809 11.0537C1.87142 10.9102 1.92975 10.7699 2.01309 10.6327C2.38492 9.95325 2.80609 9.30608 3.27659 8.69125C3.74709 8.07658 4.28809 7.52566 4.89959 7.0385L2.64184 4.76525C2.5035 4.61658 2.43525 4.44 2.43709 4.2355C2.43909 4.031 2.5125 3.85633 2.65734 3.7115C2.80217 3.56666 2.97784 3.49425 3.18434 3.49425C3.39067 3.49425 3.56625 3.56666 3.71109 3.7115L20.2881 20.2885C20.4266 20.427 20.5 20.5984 20.5083 20.8027C20.5167 21.0072 20.4433 21.1871 20.2881 21.3422C20.1433 21.4871 19.9676 21.5595 19.7611 21.5595C19.5548 21.5595 19.3792 21.4871 19.2343 21.3422L15.7151 17.8537C15.1253 18.0819 14.5191 18.2467 13.8966 18.348C13.2743 18.4493 12.6419 18.5 11.9996 18.5ZM5.95359 8.09225C5.36759 8.54491 4.84092 9.05675 4.37359 9.62775C3.90625 10.1989 3.51492 10.823 3.19959 11.5C4.03292 13.1833 5.23709 14.5208 6.81209 15.5125C8.38709 16.5042 10.1163 17 11.9996 17C12.4291 17 12.8518 16.9712 13.2678 16.9135C13.6838 16.8558 14.097 16.7667 14.5073 16.6462L13.2418 15.35C13.0393 15.4385 12.8371 15.4984 12.6351 15.5297C12.4333 15.5612 12.2214 15.577 11.9996 15.577C10.8649 15.577 9.90175 15.1812 9.11009 14.3895C8.31842 13.5978 7.92259 12.6347 7.92259 11.5C7.92259 11.2782 7.93992 11.0663 7.97459 10.8645C8.00925 10.6625 8.06759 10.4602 8.14959 10.2577L5.95359 8.09225Z" fill="black"/>
</g>
</svg>
